<?xml version="1.0" standalone="no"?>
<!DOCTYPE svg PUBLIC "-//W3C//DTD SVG 20010904//EN"
 "http://www.w3.org/TR/2001/REC-SVG-20010904/DTD/svg10.dtd">
<svg version="1.0" xmlns="http://www.w3.org/2000/svg"
 width="800.000000pt" height="600.000000pt" viewBox="0 0 800.000000 600.000000"
 preserveAspectRatio="xMidYMid meet">
<metadata>
Created by potrace 1.15, written by Peter Selinger 2001-2017
</metadata>
<g transform="translate(0.000000,600.000000) scale(0.100000,-0.100000)"
fill="#000000" stroke="none">
<path d="M0 3000 l0 -3000 4000 0 4000 0 0 3000 0 3000 -4000 0 -4000 0 0
-3000z m2910 60 l0 -444 52 -53 52 -53 -114 -115 -115 -115 -102 102 -103 103
0 443 0 443 -50 47 c-27 25 -50 51 -50 57 0 5 51 60 112 122 l113 113 102
-102 103 -103 0 -445z m1230 445 c0 -13 -182 -195 -195 -195 -5 0 -54 44 -107
97 l-98 98 102 102 103 103 97 -97 c54 -54 98 -102 98 -108z m670 -445 l0
-444 52 -53 52 -53 -114 -115 -115 -115 -102 102 -103 103 0 440 0 441 -50 49
c-27 27 -50 54 -50 59 0 6 51 61 112 123 l113 113 102 -102 103 -103 0 -445z
m-2558 543 l98 -98 0 -440 0 -440 54 -56 54 -56 -117 -117 -116 -116 -98 98
-97 97 0 444 0 443 -55 56 -54 57 112 113 c61 61 114 112 117 112 2 0 49 -44
102 -97z m1110 0 l98 -98 0 -443 0 -443 50 -50 c28 -27 50 -53 50 -57 0 -4
-51 -58 -113 -120 l-112 -112 -103 103 -102 102 0 446 0 445 -50 49 -50 49
112 113 c62 62 115 113 118 113 2 0 49 -44 102 -97z m2514 0 l94 -96 0 -441 1
-441 54 -55 54 -55 -116 -118 -117 -118 -98 98 -98 98 0 445 0 446 -55 54 -55
55 112 112 c62 62 117 113 121 113 5 0 51 -43 103 -97z m-426 -478 l115 -115
-53 -51 -52 -52 0 -146 0 -145 52 -53 52 -53 -114 -115 -115 -115 -102 102
-103 103 0 280 0 280 97 97 c54 54 100 98 103 98 3 0 57 -52 120 -115z m-1310
-305 l0 -194 55 -56 54 -55 -116 -118 -116 -119 -98 98 -99 99 0 195 0 194
-55 56 -55 56 117 117 116 118 99 -98 98 -98 0 -195z m2510 -908 c0 -11 -1920
-22 -3762 -22 -920 0 -1418 3 -1418 10 0 6 86 11 223 13 562 7 4957 6 4957 -1z
m-3035 -147 c14 -13 25 -29 25 -35 0 -18 -35 -11 -48 10 -8 13 -23 20 -45 20
-43 0 -59 -12 -55 -41 2 -19 15 -28 59 -44 73 -26 89 -40 89 -80 0 -61 -83
-96 -153 -64 -30 14 -55 59 -32 59 8 0 24 -9 35 -20 36 -36 120 -19 120 24 0
20 -22 34 -75 50 -84 26 -106 67 -64 120 17 22 28 26 70 26 40 0 55 -5 74 -25z
m276 -3 c27 -24 33 -37 37 -85 8 -101 -34 -157 -117 -157 -78 0 -121 48 -121
135 0 87 43 135 122 135 38 0 54 -6 79 -28z m129 -66 c0 -79 3 -97 21 -120 26
-33 79 -36 109 -6 17 17 20 33 20 120 0 82 3 100 15 100 12 0 15 -18 15 -106
0 -103 -1 -106 -29 -135 -24 -24 -38 -29 -76 -29 -38 0 -52 5 -76 29 -28 29
-29 32 -29 135 0 88 3 106 15 106 12 0 15 -17 15 -94z m618 74 c24 -23 29 -50
9 -50 -7 0 -18 9 -25 20 -15 24 -83 28 -102 5 -24 -29 -7 -49 60 -72 96 -33
114 -70 61 -124 -40 -39 -109 -41 -146 -4 -14 13 -25 29 -25 35 0 17 26 11 45
-10 12 -13 31 -20 55 -20 41 0 60 14 60 46 0 18 -10 26 -47 39 -89 31 -98 38
-101 77 -4 53 23 78 86 78 35 0 54 -6 70 -20z m2006 -358 c10 -16 -807 -22
-2991 -22 -1425 0 -2183 3 -2183 10 0 6 84 11 218 13 550 7 4951 6 4956 -1z"/>
<path d="M3749 1734 c-19 -20 -24 -36 -24 -79 0 -69 30 -105 85 -105 55 0 85
36 85 105 0 69 -30 105 -85 105 -26 0 -43 -7 -61 -26z"/>
</g>
</svg>
