<?xml version="1.0" standalone="no"?>
<!DOCTYPE svg PUBLIC "-//W3C//DTD SVG 20010904//EN"
 "http://www.w3.org/TR/2001/REC-SVG-20010904/DTD/svg10.dtd">
<svg version="1.0" xmlns="http://www.w3.org/2000/svg"
 width="100.000000pt" height="76.000000pt" viewBox="0 0 100.000000 76.000000"
 preserveAspectRatio="xMidYMid meet">

<g transform="translate(0.000000,600.000000) scale(0.100000,-0.100000)"
fill="#000000" stroke="none">
<path d="M0 3000 l0 -3000 4000 0 4000 0 0 3000 0 3000 -4000 0 -4000 0 0
-3000z m2252 603 l98 -98 0 -444 0 -445 52 -53 52 -53 -109 -110 c-60 -61
-113 -110 -117 -110 -4 0 -51 44 -103 98 l-95 97 0 440 0 441 -55 54 -55 55
112 112 c62 62 115 113 118 113 2 0 49 -44 102 -97z m560 -4 l98 -100 0 -442
0 -441 50 -51 51 -51 -111 -110 c-61 -60 -113 -111 -116 -113 -2 -3 -50 40
-104 94 l-100 100 0 444 0 445 -50 51 -49 50 111 113 c61 61 114 112 117 112
3 0 49 -45 103 -101z m550 4 l98 -98 0 -444 0 -445 52 -53 52 -53 -114 -115
-115 -115 -97 99 -98 99 0 444 0 444 -55 54 -55 55 112 112 c62 62 115 113
118 113 2 0 49 -44 102 -97z m681 -1 l97 -97 -100 -100 -100 -100 -100 100
-100 100 97 97 c54 54 100 98 103 98 3 0 49 -44 103 -98z m662 2 l96 -95 -1
-440 0 -440 54 -57 55 -58 -97 -100 c-143 -147 -117 -144 -233 -28 l-99 99 0
444 0 445 -50 51 -49 50 107 111 c59 62 110 112 114 113 4 1 50 -42 103 -95z
m1167 -1 l98 -98 0 -444 0 -445 52 -53 53 -53 -113 -113 -112 -112 -100 100
-100 100 0 443 0 443 -50 50 c-27 27 -50 53 -50 57 0 8 212 222 220 222 2 0
49 -44 102 -97z m-363 -639 l-50 -51 0 -148 0 -148 52 -53 51 -52 -109 -111
c-60 -61 -113 -111 -118 -111 -5 0 -54 44 -107 97 l-98 98 0 275 0 275 101
104 101 104 114 -114 114 -114 -51 -51z m-1464 137 l95 -94 0 -196 0 -195 52
-53 53 -53 -113 -113 -112 -112 -100 100 -100 100 0 194 0 195 -52 53 -52 53
109 110 c60 61 113 109 117 108 4 -2 50 -45 103 -97z m2595 -1191 c0 -7 -800
-10 -2377 -11 -1308 0 -2471 -1 -2585 -2 -115 -1 -208 1 -208 5 0 5 579 9
1288 11 3700 7 3882 7 3882 -3z m-3036 -141 c26 -20 35 -49 16 -49 -5 0 -14 9
-20 19 -25 47 -125 28 -118 -22 2 -17 19 -27 71 -47 75 -27 92 -46 82 -91 -12
-56 -107 -79 -159 -38 -14 11 -26 27 -26 35 0 20 10 18 37 -8 41 -39 123 -23
123 23 0 23 -31 44 -86 58 -50 13 -67 32 -67 73 0 63 90 92 147 47z m267 5
c76 -39 76 -192 0 -237 -109 -64 -216 51 -170 182 22 62 105 89 170 55z m149
-88 c0 -113 13 -138 74 -138 65 0 76 19 76 139 0 62 4 103 10 103 9 0 17 -146
11 -205 -7 -79 -155 -86 -187 -9 -14 34 -20 195 -8 207 17 17 24 -12 24 -97z
m272 -13 l3 -118 63 -3 c88 -4 78 -22 -13 -22 l-75 0 0 130 c0 165 18 175 22
13z m344 92 c35 -35 20 -52 -18 -20 -33 28 -44 30 -82 15 -18 -6 -26 -17 -26
-34 0 -30 14 -41 70 -56 59 -15 80 -36 80 -75 0 -47 -31 -70 -92 -70 -43 0
-53 4 -75 30 -17 19 -21 31 -14 33 7 2 18 -3 24 -12 21 -26 65 -38 95 -24 63
32 51 69 -31 93 -60 18 -87 40 -87 72 0 67 105 99 156 48z m1954 -362 c-128
-7 -5120 -7 -5120 0 0 4 1164 6 2588 5 1423 -1 2562 -3 2532 -5z"/>
<path d="M3771 1756 c-49 -27 -66 -107 -36 -165 16 -32 33 -41 75 -41 42 0 59
9 75 41 31 59 11 144 -40 167 -32 15 -44 15 -74 -2z"/>
</g>
</svg>
